<svg width="116" height="60" viewBox="0 0 116 60" fill="none" xmlns="http://www.w3.org/2000/svg">
<path d="M3.33817 5.34202C2.35417 5.01402 4.89817 1.84303 6.88017 6.46803C7.64317 8.24903 6.73917 14.612 6.55817 16.611C5.84417 24.458 6.90816 32.349 7.68516 40.116C8.18316 45.104 9.64017 50.874 13.9632 53.962C15.2832 54.905 16.6441 54.915 18.1491 55.25C22.6481 56.25 27.1282 56.405 31.6732 56.86C37.6152 57.454 43.6092 56.426 49.5432 56.055C54.8632 55.722 60.1662 55.307 65.4822 54.928C72.1032 54.455 78.8212 55.369 85.4452 54.928C89.8632 54.633 94.2452 54.362 98.6462 53.962C100.722 53.773 103.019 53.949 104.925 52.996C107.639 51.639 109.824 46.875 110.238 43.98C111.325 36.373 110.502 28.116 109.433 20.636C109.125 18.479 109.674 16.202 109.433 14.035C109.113 11.159 108.95 8.25002 108.95 5.34202C108.95 4.78702 108.725 3.29103 109.272 2.92703C110.199 2.30803 112.773 4.45603 113.136 5.18103" stroke="#00796B" stroke-width="5" stroke-miterlimit="10" stroke-linecap="round" stroke-linejoin="round"/>
<path d="M52.1479 12.7289C50.5489 9.53094 60.7739 5.26194 61.6039 12.7289C62.1339 17.5019 60.1009 22.5409 57.5919 26.4829C57.2649 26.9969 53.0079 32.4989 53.0079 32.4999C53.0079 33.4599 54.9129 32.7859 55.8729 32.7859C58.3699 32.7859 67.447 32.1269 69.34 33.0729" stroke="#424242" stroke-width="3" stroke-miterlimit="10" stroke-linecap="round" stroke-linejoin="round"/>
</svg>
