<svg width="116" height="60" viewBox="0 0 116 60" fill="none" xmlns="http://www.w3.org/2000/svg">
<path d="M38.832 20.4798C38.832 15.8968 30.384 18.0188 29.943 22.4278C29.796 23.9058 30.011 25.3708 31.283 26.3248C35.116 29.1998 39.8061 30.1668 39.8061 35.8228C39.8061 37.5048 39.17 38.4258 37.858 39.4758C37.268 39.9478 36.249 40.7178 35.545 40.9368C33.764 41.4888 31.892 41.3018 30.065 41.3018" stroke="#424242" stroke-width="3" stroke-miterlimit="10" stroke-linecap="round" stroke-linejoin="round"/>
<path d="M46.625 25.7158C46.625 29.1278 46.869 32.5378 46.869 35.9438C46.869 37.2148 46.849 39.3828 48.452 39.8408C49.991 40.2808 51.955 39.2858 53.444 38.9888" stroke="#424242" stroke-width="3" stroke-miterlimit="10" stroke-linecap="round" stroke-linejoin="round"/>
<path d="M47.843 31.561C47.294 31.561 50.624 31.814 51.374 31.439" stroke="#424242" stroke-width="3" stroke-miterlimit="10" stroke-linecap="round" stroke-linejoin="round"/>
<path d="M62.333 31.5609C61.432 30.6599 59.32 31.6519 58.558 32.4129C56.923 34.0489 57.023 37.9779 59.289 39.1099C60.743 39.8369 62.512 39.8619 63.429 38.2579C64.088 37.1039 64.038 35.1609 64.038 33.8739C64.038 33.3059 64.038 32.1699 64.038 32.1699C64.038 32.1699 64.038 32.7379 64.038 33.0219C64.038 34.0639 63.934 35.1539 64.038 36.1879C64.255 38.3579 65.867 39.4759 67.934 39.4759" stroke="#424242" stroke-width="3" stroke-miterlimit="10" stroke-linecap="round" stroke-linejoin="round"/>
<path d="M75.7271 31.6831C71.9901 29.8141 69.2831 39.3541 75.3621 39.3541C76.4551 39.3541 77.7651 39.2071 78.1621 38.0141" stroke="#424242" stroke-width="3" stroke-miterlimit="10" stroke-linecap="round" stroke-linejoin="round"/>
<path d="M82.302 20.9668C81.479 22.6128 82.172 25.3738 82.059 27.1768C81.822 30.9648 82.059 34.7238 82.059 38.5008" stroke="#424242" stroke-width="3" stroke-miterlimit="10" stroke-linecap="round" stroke-linejoin="round"/>
<path d="M85.7119 30.8301C85.0819 31.7751 84.629 32.2671 83.642 33.1441C83.33 33.4211 82.2499 33.4571 82.5459 33.7531C83.0929 34.3001 83.505 34.0471 84.129 34.7271C85.396 36.1091 86.3019 38.4921 88.025 39.3541" stroke="#424242" stroke-width="3" stroke-miterlimit="10" stroke-linecap="round" stroke-linejoin="round"/>
<path d="M3.619 5.25484C2.635 4.92684 5.17801 1.75682 7.16001 6.38182C7.92401 8.16282 7.02002 14.5248 6.83802 16.5248C6.12502 24.3718 7.189 32.2618 7.965 40.0298C8.464 45.0178 9.921 50.7878 14.244 53.8748C15.564 54.8178 16.925 54.8288 18.43 55.1628C22.929 56.1628 27.409 56.3188 31.954 56.7728C37.895 57.3668 43.89 56.3388 49.824 55.9678C55.143 55.6358 60.447 55.2208 65.762 54.8408C72.384 54.3678 79.102 55.2828 85.726 54.8408C90.143 54.5468 94.526 54.2748 98.927 53.8748C101.003 53.6868 103.3 53.8618 105.206 52.9088C107.92 51.5518 110.105 46.7888 110.519 43.8938C111.606 36.2868 110.782 28.0298 109.714 20.5498C109.406 18.3928 109.955 16.1148 109.714 13.9488C109.394 11.0728 109.231 8.16384 109.231 5.25484C109.231 4.70084 109.006 3.20483 109.553 2.83983C110.48 2.22183 113.054 4.36883 113.417 5.09383" stroke="#00796B" stroke-width="5" stroke-miterlimit="10" stroke-linecap="round" stroke-linejoin="round"/>
</svg>
