<svg width="122" height="78" viewBox="0 0 122 78" fill="none" xmlns="http://www.w3.org/2000/svg">
<path d="M59.522 19.2153C57.484 22.2733 56.091 28.1213 55.199 31.4643C55.13 31.7233 55.656 31.1523 55.92 31.1043C56.99 30.9093 58.075 30.7433 59.162 30.7433C61.01 30.7433 64.582 31.2983 66.007 32.5453C69.81 35.8723 68.886 43.1773 66.367 46.9553C61.684 53.9813 51.632 46.8433 46.553 44.0733" stroke="#424242" stroke-width="3" stroke-miterlimit="10" stroke-linecap="round" stroke-linejoin="round"/>
<path d="M60.603 20.6562C59.991 19.4322 58.701 19.0432 60.963 18.8552C63.488 18.6442 66.023 18.5032 68.529 18.1342C70.114 17.9012 71.651 17.4142 73.212 17.0532" stroke="#424242" stroke-width="3" stroke-miterlimit="10" stroke-linecap="round" stroke-linejoin="round"/>
<path d="M2.60107 4.80519C4.40407 1.19919 9.85007 2.1862 10.5271 6.2462C11.4671 11.8862 10.5271 18.5042 10.5271 24.2592C10.5271 36.7812 10.59 49.6822 11.968 62.0862C12.475 66.6502 16.8441 69.3212 20.2541 71.4532C27.9061 76.2352 42.3121 74.3122 51.2361 75.0552C56.8311 75.5212 62.5521 74.3352 68.1691 74.3352C76.1501 74.3352 87.976 76.4992 95.548 73.9742C99.533 72.6462 102.873 70.3002 106.356 68.2102C108.456 66.9512 111.292 65.5442 112.481 63.1672C114.357 59.4142 113.922 53.5352 113.922 49.4772C113.922 43.4812 113.58 37.7332 112.841 31.8242C112.164 26.4052 109.959 21.8222 109.959 16.3332C109.959 11.1162 110.057 0.75721 118.605 5.88521" stroke="#00796B" stroke-width="5" stroke-miterlimit="10" stroke-linecap="round" stroke-linejoin="round"/>
</svg>
