<svg width="118" height="115" viewBox="0 0 118 115" fill="none" xmlns="http://www.w3.org/2000/svg">
<path d="M47.989 15.3081C47.989 18.8411 46.388 22.3251 45.26 25.5971C45.043 26.2241 44.486 26.8381 44.63 27.4861C44.694 27.7751 45.596 27.2601 48.199 27.4861C49.566 27.6051 51.899 28.8661 52.819 27.4861" stroke="#424242" stroke-width="3" stroke-miterlimit="10" stroke-linecap="round" stroke-linejoin="round"/>
<path d="M53.029 22.2372C53.029 21.9572 53.029 21.1172 53.029 21.3972C53.029 24.8132 52.688 27.5802 52.399 31.2662C52.311 32.3852 51.954 33.5282 52.189 34.6262C52.255 34.9322 52.749 34.3462 53.029 34.2062" stroke="#424242" stroke-width="3" stroke-miterlimit="10" stroke-linecap="round" stroke-linejoin="round"/>
<path d="M61.848 23.497C59.966 20.674 66.9929 18.849 68.3569 20.137C69.1849 20.92 69.0239 22.358 68.9869 23.497C68.9029 26.088 66.6959 29.475 65.4169 31.266C62.8739 34.826 59.0509 36.294 66.6769 35.675C68.2879 35.545 69.8909 35.255 71.5059 35.255" stroke="#424242" stroke-width="3" stroke-miterlimit="10" stroke-linecap="round" stroke-linejoin="round"/>
<path d="M36.651 50.7931C36.791 50.5131 36.758 49.9541 37.071 49.9541C37.51 49.9541 37.593 52.4211 37.701 54.1531C37.906 57.4291 38.751 60.7581 38.751 64.0221C38.751 64.3021 38.716 63.4601 38.751 63.1821C38.838 62.4841 38.835 61.7741 38.961 61.0821C39.081 60.4191 40.842 55.3661 42.32 56.2531C43.912 57.2081 43.818 60.7941 44 62.3421C44.009 62.4191 44.21 66.0701 44.21 64.8621" stroke="#424242" stroke-width="3" stroke-miterlimit="10" stroke-linecap="round" stroke-linejoin="round"/>
<path d="M50.2989 59.402C50.0889 59.402 49.8789 59.402 49.6689 59.402C49.2489 59.402 50.5229 59.511 50.9289 59.402C51.7209 59.191 52.5639 59.027 53.2389 58.562C54.2259 57.884 54.5029 56.904 54.2889 55.833C54.2269 55.526 54.1289 55.167 53.8689 54.993C52.8689 54.326 51.1339 55.633 50.7189 56.463C48.9789 59.942 48.8539 66.3551 54.4989 65.0721C55.1089 64.9331 55.6189 64.512 56.1779 64.232" stroke="#424242" stroke-width="3" stroke-miterlimit="10" stroke-linecap="round" stroke-linejoin="round"/>
<path d="M60.7979 57.9329C60.1969 56.7299 62.8719 52.0749 63.1079 49.9539C63.2019 49.1069 63.3689 46.923 62.6879 47.434C61.8349 48.074 61.8609 49.3989 61.4279 50.3729C59.7539 54.1399 59.8569 57.9539 61.2179 61.9219C62.2159 64.8349 63.3999 66.694 65.6269 64.022" stroke="#424242" stroke-width="3" stroke-miterlimit="10" stroke-linecap="round" stroke-linejoin="round"/>
<path d="M68.3569 56.4632C67.1739 56.4632 68.7599 55.6162 68.9869 55.2032C69.6659 53.9692 70.353 52.7312 70.877 51.4232C71.337 50.2722 71.701 49.0732 71.926 47.8542C72.081 47.0172 72.3409 45.5012 71.5059 45.3342C70.3379 45.1002 69.6709 50.2242 69.6169 50.5832C68.9449 55.0592 67.9019 62.2502 73.1859 64.2322" stroke="#424242" stroke-width="3" stroke-miterlimit="10" stroke-linecap="round" stroke-linejoin="round"/>
<path fill-rule="evenodd" clip-rule="evenodd" d="M78.331 56.8832C78.246 57.2172 78.955 57.1752 79.275 57.3032C79.607 57.4352 78.5 56.8642 78.226 57.0932C77.912 57.3542 77.725 57.7552 77.596 58.1422C77.151 59.4762 77.493 60.5662 77.806 61.9222C78.251 63.8512 80.788 65.9552 82.635 64.2322C88.263 58.9792 79.816 50.9902 78.331 56.8832Z" stroke="#424242" stroke-width="3" stroke-miterlimit="10" stroke-linecap="round" stroke-linejoin="round"/>
<path fill-rule="evenodd" clip-rule="evenodd" d="M46.0999 81.2401C45.4079 81.7821 45.135 80.6791 44.21 81.4501C43.123 82.3551 43.23 84.599 43.37 85.859C43.844 90.124 48.7999 93.2671 51.1389 88.5891C52.7209 85.4251 49.9339 78.2321 46.0999 81.2401Z" stroke="#424242" stroke-width="3" stroke-miterlimit="10" stroke-linecap="round" stroke-linejoin="round"/>
<path d="M54.9189 86.0691C54.9189 87.1481 59.0839 91.2671 59.9579 92.5781" stroke="#424242" stroke-width="3" stroke-miterlimit="10" stroke-linecap="round" stroke-linejoin="round"/>
<path d="M59.748 87.1191C59.748 88.9411 57.657 90.8861 56.598 92.3681" stroke="#424242" stroke-width="3" stroke-miterlimit="10" stroke-linecap="round" stroke-linejoin="round"/>
<path d="M66.4669 81.6591C66.4669 80.6431 66.6289 83.6041 66.6769 85.2291C66.7529 87.8181 66.6769 90.4081 66.6769 92.9981C66.6769 94.8191 67.0969 92.2141 67.0969 91.5281" stroke="#424242" stroke-width="3" stroke-miterlimit="10" stroke-linecap="round" stroke-linejoin="round"/>
<path d="M67.0969 82.079C68.3629 81.447 70.4469 81.235 71.7159 81.869" stroke="#424242" stroke-width="3" stroke-miterlimit="10" stroke-linecap="round" stroke-linejoin="round"/>
<path d="M68.147 87.5391H68.567H69.617H70.457H70.877L71.296 87.3291" stroke="#424242" stroke-width="3" stroke-miterlimit="10" stroke-linecap="round" stroke-linejoin="round"/>
<path d="M77.5959 81.2401C77.5959 80.8901 77.6119 81.9401 77.5959 82.2891C77.5379 83.5501 77.4929 84.8121 77.3859 86.0691C77.2829 87.2631 77.0509 88.4431 76.9659 89.6381C76.9599 89.7221 77.176 96.3011 77.176 92.1581" stroke="#424242" stroke-width="3" stroke-miterlimit="10" stroke-linecap="round" stroke-linejoin="round"/>
<path d="M78.226 82.0791C79.357 80.9481 81.2809 81.5131 82.6349 80.6101" stroke="#424242" stroke-width="3" stroke-miterlimit="10" stroke-linecap="round" stroke-linejoin="round"/>
<path d="M79.0649 86.6991L79.4849 86.9091H80.325L81.1649 86.6991" stroke="#424242" stroke-width="3" stroke-miterlimit="10" stroke-linecap="round" stroke-linejoin="round"/>
<path d="M3.47498 5.64908C4.48298 3.63408 7.88096 5.21507 8.30496 6.90907C8.62296 8.18107 8.09497 9.63108 8.09497 10.8991C8.09497 14.7181 7.88496 18.6681 8.30496 22.4471C9.17496 30.2781 9.56396 38.2351 9.56396 46.1741C9.56396 48.8001 9.89196 51.3201 9.56396 53.9431C8.81196 59.9591 9.87997 66.4531 10.194 72.4211C10.547 79.1171 10.536 87.2591 12.924 93.6281C14.847 98.7561 21.438 102.294 25.942 104.547C29.613 106.382 33.099 108.814 37.071 110.006C44.178 112.138 53.163 112.848 60.588 112.106C71.861 110.978 83.365 111.621 94.603 110.216C96.385 109.993 98.293 110.511 100.063 110.216C101.252 110.018 102.429 109.548 103.632 109.376C104.658 109.229 106.09 109.678 106.992 108.956C109.602 106.868 110.433 102.873 111.611 99.9271C112.841 96.8541 112.993 94.1761 113.291 90.8981C114.059 82.4481 114.551 74.0071 114.551 65.4921C114.551 57.6361 115.583 49.3621 114.761 41.5551C114.121 35.4721 113.017 29.2641 111.821 23.2871C110.794 18.1501 109.508 11.5461 110.561 6.27908C111.062 3.77408 113.237 1.65208 114.131 5.22908" stroke="#00796B" stroke-width="5" stroke-miterlimit="10" stroke-linecap="round" stroke-linejoin="round"/>
<path d="M17.963 72.001C19.663 71.434 21.285 71.795 23.003 71.581C30.19 70.682 37.338 70.741 44.63 70.741C58.785 70.741 72.692 69.901 86.834 69.901C91.975 69.901 97.258 69.935 102.372 69.691C104.344 69.597 106.801 68.966 108.672 69.901" stroke="#424242" stroke-miterlimit="10" stroke-linecap="round" stroke-linejoin="round"/>
<path d="M16.2839 43.6542C16.9349 42.3522 21.3179 42.8142 22.7929 42.8142C28.2429 42.8142 33.7109 42.3952 39.1709 42.3952C44.8509 42.3952 50.1379 41.5362 55.7579 41.1352C60.5779 40.7902 65.4289 41.0162 70.2469 40.7152C75.7859 40.3692 81.2799 39.4322 86.8339 39.0352C92.4409 38.6352 98.2129 39.0352 103.842 39.0352" stroke="#424242" stroke-miterlimit="10" stroke-linecap="round" stroke-linejoin="round"/>
</svg>
