<svg width="122" height="117" viewBox="0 0 122 117" fill="none" xmlns="http://www.w3.org/2000/svg">
<path d="M58.131 23.544C58.131 16.576 69.213 19.688 70.452 25.263C71.273 28.957 67.62 30.945 64.721 31.567C64.584 31.596 61.125 32.398 60.996 32.14C60.459 31.065 64.757 31.209 65.008 31.28C67.721 32.055 70.2 34.946 71.025 37.584C74.085 47.376 61.272 53.431 53.833 48.472" stroke="#424242" stroke-width="3" stroke-miterlimit="10" stroke-linecap="round" stroke-linejoin="round"/>
<path d="M58.418 67.956C59.069 66.653 58.962 65.979 60.137 64.804C60.626 64.315 62.6729 64.234 62.7159 64.231C66.5069 63.96 68.7289 67.144 68.4459 70.821C68.1059 75.238 67.0889 76.601 64.1479 80.277C62.7329 82.046 55.3309 87.109 60.4229 90.019C61.8129 90.813 63.4119 91.319 65.0079 91.452C66.9209 91.611 68.8329 91.11 70.7379 90.879C71.9859 90.727 73.222 90.497 74.463 90.306" stroke="#424242" stroke-width="3" stroke-miterlimit="10" stroke-linecap="round" stroke-linejoin="round"/>
<path d="M3.40413 8.64399C0.308133 8.64399 7.11215 6.638 7.98815 6.638C9.78215 6.638 11.5501 8.789 12.0001 10.363C12.9671 13.748 12.2141 18.101 12.0001 21.538C11.6681 26.842 12.0001 32.268 12.0001 37.584C12.0001 53.53 14.5791 69.386 13.4321 85.435C13.0181 91.232 10.7691 103.443 14.8651 108.357C21.8751 116.769 32.0591 112.941 41.5121 112.941C50.2131 112.941 58.8711 113.228 67.5871 113.228C72.6941 113.228 77.9692 112.837 83.0592 113.228C90.8002 113.823 98.8901 114.61 106.555 113.515C108.782 113.196 111.228 113.955 113.432 113.515C122.407 111.72 117.915 101.633 118.589 94.89C119.854 82.245 117.341 69.881 116.297 57.354C115.632 49.372 115.151 41.314 115.151 33.286C115.151 25.385 114.005 17.342 114.005 9.50399C114.005 7.90199 116.771 0.328997 118.876 3.487" stroke="#00796B" stroke-width="5" stroke-miterlimit="10" stroke-linecap="round" stroke-linejoin="round"/>
<path d="M27.186 58.214C35.346 58.214 43.1641 56.731 51.2541 55.922C54.8401 55.563 58.5681 56.369 62.1421 55.922C67.9491 55.196 73.769 55.308 79.621 54.776C86.133 54.184 92.663 54.703 99.105 53.63C100.648 53.372 101.532 54.135 103.116 53.343" stroke="#424242" stroke-miterlimit="10" stroke-linecap="round" stroke-linejoin="round"/>
</svg>
